<svg xmlns="http://www.w3.org/2000/svg" width="651" height="747" viewBox="0 0 651 747">
  <g id="image" transform="translate(-45 -148)">
    <g id="Rectangle_2" data-name="Rectangle 2" transform="translate(45 155)" fill="#06b5b9" stroke="#707070" stroke-width="1">
      <rect width="651" height="740" stroke="none"/>
      <rect x="0.5" y="0.5" width="650" height="739" fill="none"/>
    </g>
    <g id="Rectangle_3" data-name="Rectangle 3" transform="translate(45 155)" fill="#ec098d" stroke="#707070" stroke-width="2">
      <path d="M0,0H462a5,5,0,0,1,5,5V25a62,62,0,0,1-62,62H0a0,0,0,0,1,0,0V0A0,0,0,0,1,0,0Z" stroke="none"/>
      <path d="M2,1H462a4,4,0,0,1,4,4V25a61,61,0,0,1-61,61H2a1,1,0,0,1-1-1V2A1,1,0,0,1,2,1Z" fill="none"/>
    </g>
    <g id="Rectangle_4" data-name="Rectangle 4" transform="translate(156 148)" fill="none" stroke="#fff" stroke-width="4">
      <path d="M0,0H230a0,0,0,0,1,0,0V146A110,110,0,0,1,120,256H110A110,110,0,0,1,0,146V0A0,0,0,0,1,0,0Z" stroke="none"/>
      <path d="M4,2H226a2,2,0,0,1,2,2V146A108,108,0,0,1,120,254H110A108,108,0,0,1,2,146V4A2,2,0,0,1,4,2Z" fill="none"/>
    </g>
    <g id="Rectangle_5" data-name="Rectangle 5" transform="translate(196 150)" fill="none" stroke="#fff" stroke-width="4">
      <path d="M0,0H153a0,0,0,0,1,0,0V143.5A76.5,76.5,0,0,1,76.5,220h0A76.5,76.5,0,0,1,0,143.5V0A0,0,0,0,1,0,0Z" stroke="none"/>
      <path d="M3.987,2H149.013A1.987,1.987,0,0,1,151,3.987V143.5A74.5,74.5,0,0,1,76.5,218h0A74.5,74.5,0,0,1,2,143.5V3.987A1.987,1.987,0,0,1,3.987,2Z" fill="none"/>
    </g>
    <g id="Rectangle_6" data-name="Rectangle 6" transform="translate(231 151)" fill="none" stroke="#fff" stroke-linecap="round" stroke-width="4">
      <path d="M0,0H85a0,0,0,0,1,0,0V142.5A42.5,42.5,0,0,1,42.5,185h0A42.5,42.5,0,0,1,0,142.5V0A0,0,0,0,1,0,0Z" stroke="none"/>
      <path d="M3.688,2H81.313A1.688,1.688,0,0,1,83,3.688V142.5A40.5,40.5,0,0,1,42.5,183h0A40.5,40.5,0,0,1,2,142.5V3.688A1.688,1.688,0,0,1,3.688,2Z" fill="none"/>
    </g>
    <g id="Group_1" data-name="Group 1" transform="translate(41 11)">
      <g id="dotted_line-1" data-name="dotted line-1">
        <g id="Ellipse_1" data-name="Ellipse 1" transform="translate(502 719)" fill="#fff" stroke="#707070" stroke-width="1">
          <circle cx="5.5" cy="5.5" r="5.5" stroke="none"/>
          <circle cx="5.5" cy="5.5" r="5" fill="none"/>
        </g>
        <g id="Ellipse_2" data-name="Ellipse 2" transform="translate(502 741)" fill="#fff" stroke="#707070" stroke-width="1">
          <circle cx="5.5" cy="5.5" r="5.5" stroke="none"/>
          <circle cx="5.5" cy="5.5" r="5" fill="none"/>
        </g>
        <g id="Ellipse_3" data-name="Ellipse 3" transform="translate(502 763)" fill="#fff" stroke="#707070" stroke-width="1">
          <circle cx="5.5" cy="5.5" r="5.5" stroke="none"/>
          <circle cx="5.5" cy="5.5" r="5" fill="none"/>
        </g>
        <g id="Ellipse_4" data-name="Ellipse 4" transform="translate(502 785)" fill="#fff" stroke="#707070" stroke-width="1">
          <circle cx="5.5" cy="5.5" r="5.5" stroke="none"/>
          <circle cx="5.5" cy="5.5" r="5" fill="none"/>
        </g>
        <g id="Ellipse_5" data-name="Ellipse 5" transform="translate(502 807)" fill="#fff" stroke="#707070" stroke-width="1">
          <circle cx="5.5" cy="5.5" r="5.5" stroke="none"/>
          <circle cx="5.5" cy="5.5" r="5" fill="none"/>
        </g>
        <g id="Ellipse_6" data-name="Ellipse 6" transform="translate(502 829)" fill="#fff" stroke="#707070" stroke-width="1">
          <circle cx="5.5" cy="5.5" r="5.5" stroke="none"/>
          <circle cx="5.5" cy="5.5" r="5" fill="none"/>
        </g>
        <g id="Ellipse_7" data-name="Ellipse 7" transform="translate(502 851)" fill="#fff" stroke="#707070" stroke-width="1">
          <circle cx="5.5" cy="5.5" r="5.5" stroke="none"/>
          <circle cx="5.5" cy="5.5" r="5" fill="none"/>
        </g>
        <g id="Ellipse_8" data-name="Ellipse 8" transform="translate(502 873)" fill="#fff" stroke="#707070" stroke-width="1">
          <circle cx="5.5" cy="5.5" r="5.5" stroke="none"/>
          <circle cx="5.5" cy="5.5" r="5" fill="none"/>
        </g>
        <g id="Ellipse_9" data-name="Ellipse 9" transform="translate(502 675)" fill="#fff" stroke="#707070" stroke-width="1">
          <circle cx="5.5" cy="5.5" r="5.5" stroke="none"/>
          <circle cx="5.5" cy="5.5" r="5" fill="none"/>
        </g>
        <g id="Ellipse_10" data-name="Ellipse 10" transform="translate(502 653)" fill="#fff" stroke="#707070" stroke-width="1">
          <circle cx="5.5" cy="5.5" r="5.5" stroke="none"/>
          <circle cx="5.5" cy="5.5" r="5" fill="none"/>
        </g>
        <g id="Ellipse_11" data-name="Ellipse 11" transform="translate(502 697)" fill="#fff" stroke="#707070" stroke-width="1">
          <circle cx="5.5" cy="5.5" r="5.5" stroke="none"/>
          <circle cx="5.5" cy="5.5" r="5" fill="none"/>
        </g>
      </g>
      <g id="dotted_line-1-2" data-name="dotted line-1" transform="translate(-1 -65)">
        <g id="Ellipse_1-2" data-name="Ellipse 1" transform="translate(502 719)" fill="#fff" stroke="#707070" stroke-width="1">
          <circle cx="5.5" cy="5.5" r="5.5" stroke="none"/>
          <circle cx="5.5" cy="5.5" r="5" fill="none"/>
        </g>
        <g id="Ellipse_2-2" data-name="Ellipse 2" transform="translate(502 741)" fill="#fff" stroke="#707070" stroke-width="1">
          <circle cx="5.5" cy="5.5" r="5.5" stroke="none"/>
          <circle cx="5.5" cy="5.5" r="5" fill="none"/>
        </g>
        <g id="Ellipse_3-2" data-name="Ellipse 3" transform="translate(502 763)" fill="#fff" stroke="#707070" stroke-width="1">
          <circle cx="5.5" cy="5.5" r="5.5" stroke="none"/>
          <circle cx="5.5" cy="5.5" r="5" fill="none"/>
        </g>
        <g id="Ellipse_4-2" data-name="Ellipse 4" transform="translate(502 785)" fill="#fff" stroke="#707070" stroke-width="1">
          <circle cx="5.5" cy="5.5" r="5.5" stroke="none"/>
          <circle cx="5.5" cy="5.5" r="5" fill="none"/>
        </g>
        <g id="Ellipse_5-2" data-name="Ellipse 5" transform="translate(502 807)" fill="#fff" stroke="#707070" stroke-width="1">
          <circle cx="5.5" cy="5.5" r="5.5" stroke="none"/>
          <circle cx="5.5" cy="5.5" r="5" fill="none"/>
        </g>
        <g id="Ellipse_6-2" data-name="Ellipse 6" transform="translate(502 829)" fill="#fff" stroke="#707070" stroke-width="1">
          <circle cx="5.5" cy="5.5" r="5.5" stroke="none"/>
          <circle cx="5.5" cy="5.5" r="5" fill="none"/>
        </g>
        <g id="Ellipse_7-2" data-name="Ellipse 7" transform="translate(502 851)" fill="#fff" stroke="#707070" stroke-width="1">
          <circle cx="5.5" cy="5.5" r="5.5" stroke="none"/>
          <circle cx="5.5" cy="5.5" r="5" fill="none"/>
        </g>
        <g id="Ellipse_8-2" data-name="Ellipse 8" transform="translate(502 873)" fill="#fff" stroke="#707070" stroke-width="1">
          <circle cx="5.5" cy="5.5" r="5.5" stroke="none"/>
          <circle cx="5.5" cy="5.5" r="5" fill="none"/>
        </g>
        <g id="Ellipse_9-2" data-name="Ellipse 9" transform="translate(502 675)" fill="#fff" stroke="#707070" stroke-width="1">
          <circle cx="5.5" cy="5.5" r="5.5" stroke="none"/>
          <circle cx="5.5" cy="5.5" r="5" fill="none"/>
        </g>
        <g id="Ellipse_10-2" data-name="Ellipse 10" transform="translate(502 653)" fill="#fff" stroke="#707070" stroke-width="1">
          <circle cx="5.5" cy="5.5" r="5.5" stroke="none"/>
          <circle cx="5.5" cy="5.5" r="5" fill="none"/>
        </g>
        <g id="Ellipse_11-2" data-name="Ellipse 11" transform="translate(502 697)" fill="#fff" stroke="#707070" stroke-width="1">
          <circle cx="5.5" cy="5.5" r="5.5" stroke="none"/>
          <circle cx="5.5" cy="5.5" r="5" fill="none"/>
        </g>
      </g>
    </g>
    <g id="Group_2" data-name="Group 2" transform="translate(119 9)">
      <g id="dotted_line-1-3" data-name="dotted line-1">
        <g id="Ellipse_1-3" data-name="Ellipse 1" transform="translate(502 719)" fill="#fff" stroke="#707070" stroke-width="1">
          <circle cx="5.5" cy="5.5" r="5.5" stroke="none"/>
          <circle cx="5.5" cy="5.5" r="5" fill="none"/>
        </g>
        <g id="Ellipse_2-3" data-name="Ellipse 2" transform="translate(502 741)" fill="#fff" stroke="#707070" stroke-width="1">
          <circle cx="5.5" cy="5.5" r="5.5" stroke="none"/>
          <circle cx="5.5" cy="5.5" r="5" fill="none"/>
        </g>
        <g id="Ellipse_3-3" data-name="Ellipse 3" transform="translate(502 763)" fill="#fff" stroke="#707070" stroke-width="1">
          <circle cx="5.5" cy="5.5" r="5.5" stroke="none"/>
          <circle cx="5.5" cy="5.5" r="5" fill="none"/>
        </g>
        <g id="Ellipse_4-3" data-name="Ellipse 4" transform="translate(502 785)" fill="#fff" stroke="#707070" stroke-width="1">
          <circle cx="5.5" cy="5.5" r="5.5" stroke="none"/>
          <circle cx="5.5" cy="5.5" r="5" fill="none"/>
        </g>
        <g id="Ellipse_5-3" data-name="Ellipse 5" transform="translate(502 807)" fill="#fff" stroke="#707070" stroke-width="1">
          <circle cx="5.5" cy="5.5" r="5.5" stroke="none"/>
          <circle cx="5.5" cy="5.5" r="5" fill="none"/>
        </g>
        <g id="Ellipse_6-3" data-name="Ellipse 6" transform="translate(502 829)" fill="#fff" stroke="#707070" stroke-width="1">
          <circle cx="5.5" cy="5.5" r="5.5" stroke="none"/>
          <circle cx="5.5" cy="5.5" r="5" fill="none"/>
        </g>
        <g id="Ellipse_7-3" data-name="Ellipse 7" transform="translate(502 851)" fill="#fff" stroke="#707070" stroke-width="1">
          <circle cx="5.5" cy="5.5" r="5.5" stroke="none"/>
          <circle cx="5.5" cy="5.5" r="5" fill="none"/>
        </g>
        <g id="Ellipse_8-3" data-name="Ellipse 8" transform="translate(502 873)" fill="#fff" stroke="#707070" stroke-width="1">
          <circle cx="5.5" cy="5.5" r="5.5" stroke="none"/>
          <circle cx="5.5" cy="5.5" r="5" fill="none"/>
        </g>
        <g id="Ellipse_9-3" data-name="Ellipse 9" transform="translate(502 675)" fill="#fff" stroke="#707070" stroke-width="1">
          <circle cx="5.5" cy="5.5" r="5.5" stroke="none"/>
          <circle cx="5.5" cy="5.5" r="5" fill="none"/>
        </g>
        <g id="Ellipse_10-3" data-name="Ellipse 10" transform="translate(502 653)" fill="#fff" stroke="#707070" stroke-width="1">
          <circle cx="5.5" cy="5.5" r="5.5" stroke="none"/>
          <circle cx="5.5" cy="5.5" r="5" fill="none"/>
        </g>
        <g id="Ellipse_11-3" data-name="Ellipse 11" transform="translate(502 697)" fill="#fff" stroke="#707070" stroke-width="1">
          <circle cx="5.5" cy="5.5" r="5.5" stroke="none"/>
          <circle cx="5.5" cy="5.5" r="5" fill="none"/>
        </g>
      </g>
      <g id="dotted_line-1-4" data-name="dotted line-1" transform="translate(-1 -65)">
        <g id="Ellipse_1-4" data-name="Ellipse 1" transform="translate(502 719)" fill="#fff" stroke="#707070" stroke-width="1">
          <circle cx="5.5" cy="5.5" r="5.5" stroke="none"/>
          <circle cx="5.5" cy="5.5" r="5" fill="none"/>
        </g>
        <g id="Ellipse_2-4" data-name="Ellipse 2" transform="translate(502 741)" fill="#fff" stroke="#707070" stroke-width="1">
          <circle cx="5.5" cy="5.5" r="5.5" stroke="none"/>
          <circle cx="5.5" cy="5.5" r="5" fill="none"/>
        </g>
        <g id="Ellipse_3-4" data-name="Ellipse 3" transform="translate(502 763)" fill="#fff" stroke="#707070" stroke-width="1">
          <circle cx="5.5" cy="5.5" r="5.5" stroke="none"/>
          <circle cx="5.5" cy="5.5" r="5" fill="none"/>
        </g>
        <g id="Ellipse_4-4" data-name="Ellipse 4" transform="translate(502 785)" fill="#fff" stroke="#707070" stroke-width="1">
          <circle cx="5.5" cy="5.5" r="5.5" stroke="none"/>
          <circle cx="5.5" cy="5.5" r="5" fill="none"/>
        </g>
        <g id="Ellipse_5-4" data-name="Ellipse 5" transform="translate(502 807)" fill="#fff" stroke="#707070" stroke-width="1">
          <circle cx="5.5" cy="5.5" r="5.5" stroke="none"/>
          <circle cx="5.5" cy="5.5" r="5" fill="none"/>
        </g>
        <g id="Ellipse_6-4" data-name="Ellipse 6" transform="translate(502 829)" fill="#fff" stroke="#707070" stroke-width="1">
          <circle cx="5.5" cy="5.5" r="5.5" stroke="none"/>
          <circle cx="5.5" cy="5.5" r="5" fill="none"/>
        </g>
        <g id="Ellipse_7-4" data-name="Ellipse 7" transform="translate(502 851)" fill="#fff" stroke="#707070" stroke-width="1">
          <circle cx="5.5" cy="5.5" r="5.5" stroke="none"/>
          <circle cx="5.5" cy="5.5" r="5" fill="none"/>
        </g>
        <g id="Ellipse_8-4" data-name="Ellipse 8" transform="translate(502 873)" fill="#fff" stroke="#707070" stroke-width="1">
          <circle cx="5.5" cy="5.5" r="5.5" stroke="none"/>
          <circle cx="5.5" cy="5.5" r="5" fill="none"/>
        </g>
        <g id="Ellipse_9-4" data-name="Ellipse 9" transform="translate(502 675)" fill="#fff" stroke="#707070" stroke-width="1">
          <circle cx="5.5" cy="5.5" r="5.5" stroke="none"/>
          <circle cx="5.5" cy="5.5" r="5" fill="none"/>
        </g>
        <g id="Ellipse_10-4" data-name="Ellipse 10" transform="translate(502 653)" fill="#fff" stroke="#707070" stroke-width="1">
          <circle cx="5.5" cy="5.5" r="5.5" stroke="none"/>
          <circle cx="5.5" cy="5.5" r="5" fill="none"/>
        </g>
        <g id="Ellipse_11-4" data-name="Ellipse 11" transform="translate(502 697)" fill="#fff" stroke="#707070" stroke-width="1">
          <circle cx="5.5" cy="5.5" r="5.5" stroke="none"/>
          <circle cx="5.5" cy="5.5" r="5" fill="none"/>
        </g>
      </g>
    </g>
    <g id="Ellipse_12" data-name="Ellipse 12" transform="translate(243 806)" fill="rgba(174,66,212,0.71)" stroke="#707070" stroke-width="1">
      <circle cx="18" cy="18" r="18" stroke="none"/>
      <circle cx="18" cy="18" r="17.5" fill="none"/>
    </g>
    <g id="Ellipse_13" data-name="Ellipse 13" transform="translate(514 691)" fill="rgba(174,66,212,0.71)" stroke="#707070" stroke-width="1">
      <circle cx="25" cy="25" r="25" stroke="none"/>
      <circle cx="25" cy="25" r="24.5" fill="none"/>
    </g>
  </g>
</svg>
